# xmcd
#
# Track frame offsets:
#	150
#	13334
#	28110
#	42285
#	55244
#	69456
#	81847
#	95294
#	110013
#	122138
#	131182
#	144659
#	157679
#	171342
#	182702
#	194756
#	206617
#	220104
#	236723
#	247609
#	259435
#	269776
#	282132
#	291927
#
# Disc length: 4019 seconds
#
# Revision: 0
# Processed by: cddbd v1.5.2PL0 Copyright (c) Steve Scherf et al.
# Submitted via: audiograbber 1.83.01
#
DISCID=770fb118
DTITLE=The Greatest Country Music Recordings Of All Time - Record 67 and 68
DYEAR=1900
DGENRE=
TTITLE0=Rouse Brothers - Orange Blossom Special
TTITLE1=Carlisle Brothers - There'll Come A Time
TTITLE2=Grant Brothers - Goodbye My Honey, Goodbye
TTITLE3=Johnson Brothers - Alecazander
TTITLE4=Callahan Brothers - She's My Curly Headed Baby #3
TTITLE5=Louvin Brothers - My Baby's Gone
TTITLE6=Delmore Brothers - In The Blue Hills Of Virginia
TTITLE7=McGee Brothers - Railroad Blues
TTITLE8=Blue Sky Boys - The Sunny Side Of Life
TTITLE9=Monroe Brothers - Rollin' On
TTITLE10=Delmore Brothers - I've Got The Big River Blues
TTITLE11=Shelton Brothers - Deep Elm Blues
TTITLE12=Rice Brothers Gang - Railroad Boomer
TTITLE13=Bailes Brothers - I Want To Be Loved By No One But You
TTITLE14=Allen Brothers - A New Salty Dog
TTITLE15=Morris Brothers - Tragic Romance
TTITLE16=Shelton Brothers - Jus Because
TTITLE17=Dixon Brothers - I Didn't Hear Nobody Pray
TTITLE18=Anglin Twins and Red - Uncle Eph's Got The Coon
TTITLE19=Jim and Jesse - Paradise
TTITLE20=Everly Brothers - All I Have To Do Is Dream
TTITLE21=Buvhanan Brothers - Atomic Power
TTITLE22=Wilburn Brothers - Trouble's Back In Town
TTITLE23=Louvin Brothers - I Don't Believe You Met My Baby
EXTD=
EXTT0=
EXTT1=
EXTT2=
EXTT3=
EXTT4=
EXTT5=
EXTT6=
EXTT7=
EXTT8=
EXTT9=
EXTT10=
EXTT11=
EXTT12=
EXTT13=
EXTT14=
EXTT15=
EXTT16=
EXTT17=
EXTT18=
EXTT19=
EXTT20=
EXTT21=
EXTT22=
EXTT23=
PLAYORDER=
